{"title":"Sleepless.in.Seattle.1993.SWESUB.DVDRip.XviD.AC3.(5.1).-Zen_Bud","uid":5647835,"size":1470224740,"categoryP":"video","categoryS":"movies","magnet":"?xt=urn:btih:badb82fed278d93fce6fc61b182b813f8419d7a0&amp;dn=Sleepless.in.Seattle.1993.SWESUB.DVDRip.XviD.AC3.%285.1%29.-Zen_Bud&amp;tr=udp%3A%2F%2Ftracker.openbittorrent.com%3A80&amp;tr=udp%3A%2F%2Fopen.demonii.com%3A1337&amp;tr=udp%3A%2F%2Ftracker.coppersurfer.tk%3A6969&amp;tr=udp%3A%2F%2Fexodus.desync.com%3A6969","seeders":0,"leechers":1,"uploader":"Zen_Bud","files":-1,"time":1277462866,"description":"General\nComplete name                    : Sleepless.in.Seattle.avi\nFormat                           : AVI\nFile size                        : 1.37 GiB\nDuration                         : 1h 40mn\nOverall bit rate                 : 1 944 Kbps\n\nVideo\nID                               : 0\nFormat                           : MPEG-4 Visual\nCodec ID/Hint                    : XviD\nDuration                         : 1h 40mn\nBit rate                         : 1 741 Kbps\nWidth                            : 702 pixels\nHeight                           : 550 pixels\nDisplay aspect ratio             : 16:9essive\nBits/(Pixel*Frame)               : 0.180\nStream size                      : 1.23 GiB (90%)\nWriting library                  : XviD 1.1.2 (UTC 2006-11-01)\n\nAudio\nID                               : 1\nFormat                           : AC-3\nDuration                         : 1h 40mn\nBit rate                         : 192 Kbps\nChannel(s)                       : 2 channels\nSampling rate                    : 48.0 KHz\nStream size                      : 138 MiB (10%)\n)\n\n","torrent":{"xt":"urn:btih:badb82fed278d93fce6fc61b182b813f8419d7a0","amp;dn":"Sleepless.in.Seattle.1993.SWESUB.DVDRip.XviD.AC3.%285.1%29.-Zen_Bud","amp;tr":["udp%3A%2F%2Ftracker.openbittorrent.com%3A80","udp%3A%2F%2Fopen.demonii.com%3A1337","udp%3A%2F%2Ftracker.coppersurfer.tk%3A6969","udp%3A%2F%2Fexodus.desync.com%3A6969"],"infoHash":"badb82fed278d93fce6fc61b182b813f8419d7a0","infoHashBuffer":{"type":"Buffer","data":[186,219,130,254,210,120,217,63,206,111,198,27,24,43,129,63,132,25,215,160]},"announce":[],"urlList":[]}}